<mxfile host="app.diagrams.net" agent="Mozilla/5.0 (Windows NT 10.0; Win64; x64) AppleWebKit/537.36 (KHTML, like Gecko) Chrome/138.0.0.0 Safari/537.36" version="27.2.0">
  <diagram name="Halaman-1" id="BNS5ScrsEtrQ7KkqK9Wz">
    <mxGraphModel dx="16120" dy="8700" grid="0" gridSize="10" guides="1" tooltips="1" connect="1" arrows="1" fold="1" page="0" pageScale="1" pageWidth="827" pageHeight="1169" math="0" shadow="0">
      <root>
        <mxCell id="0" />
        <mxCell id="1" parent="0" />
        <mxCell id="EAtUw-Fj68rgTDZLPTxG-1" value="&lt;p style=&quot;margin-bottom: 0cm;&quot; class=&quot;MsoNormal&quot;&gt;&lt;/p&gt;&lt;div style=&quot;text-align: center;&quot;&gt;&lt;b style=&quot;background-color: transparent; color: light-dark(rgb(0, 0, 0), rgb(255, 255, 255));&quot;&gt;&lt;span style=&quot;line-height: 115%; font-family: &amp;quot;Times New Roman&amp;quot;, serif;&quot;&gt;&lt;font style=&quot;font-size: 44px;&quot;&gt;Identifikasi Masalah&lt;/font&gt;&lt;/span&gt;&lt;/b&gt;&lt;/div&gt;&lt;p&gt;&lt;/p&gt;&lt;font style=&quot;font-size: 41px;&quot;&gt;&lt;div style=&quot;text-align: center;&quot;&gt;&lt;br&gt;&lt;/div&gt;&lt;br&gt;&lt;/font&gt;&lt;p style=&quot;margin-top: 0cm; margin-right: 0cm; margin-left: 14.2pt;&quot; class=&quot;MsoListParagraphCxSpFirst&quot;&gt;&lt;font style=&quot;font-size: 41px;&quot;&gt;&lt;span style=&quot;line-height: 115%; font-family: &amp;quot;Times New Roman&amp;quot;, serif;&quot;&gt;1.&lt;span style=&quot;font-variant-numeric: normal; font-variant-east-asian: normal; font-variant-alternates: normal; font-size-adjust: none; font-kerning: auto; font-optical-sizing: auto; font-feature-settings: normal; font-variation-settings: normal; font-variant-position: normal; font-variant-emoji: normal; font-stretch: normal; line-height: normal; font-family: &amp;quot;Times New Roman&amp;quot;;&quot;&gt;&amp;nbsp;&lt;/span&gt;&lt;/span&gt;&lt;span style=&quot;line-height: 115%; font-family: &amp;quot;Times New Roman&amp;quot;, serif;&quot;&gt;Sistem Rumah Sakit sudah ada namun tidak ada menu pilihan untuk pembuatan laporan morbiditas sehingga pelaporan dikerjakan secara manual&lt;/span&gt;&lt;/font&gt;&lt;/p&gt;&lt;p style=&quot;margin-top: 0cm; margin-right: 0cm; margin-left: 14.2pt;&quot; class=&quot;MsoListParagraphCxSpMiddle&quot;&gt;&lt;font style=&quot;font-size: 41px;&quot;&gt;&lt;span style=&quot;line-height: 115%; font-family: &amp;quot;Times New Roman&amp;quot;, serif;&quot;&gt;2.&lt;span style=&quot;font-variant-numeric: normal; font-variant-east-asian: normal; font-variant-alternates: normal; font-size-adjust: none; font-kerning: auto; font-optical-sizing: auto; font-feature-settings: normal; font-variation-settings: normal; font-variant-position: normal; font-variant-emoji: normal; font-stretch: normal; line-height: normal; font-family: &amp;quot;Times New Roman&amp;quot;;&quot;&gt;&amp;nbsp;&lt;/span&gt;&lt;/span&gt;&lt;span style=&quot;line-height: 115%; font-family: &amp;quot;Times New Roman&amp;quot;, serif;&quot;&gt;Perekapitulasian data membutuhkan waktu yang lama&lt;/span&gt;&lt;/font&gt;&lt;/p&gt;" style="rounded=1;whiteSpace=wrap;html=1;align=left;" vertex="1" parent="1">
          <mxGeometry x="-91" y="24" width="475" height="929" as="geometry" />
        </mxCell>
      </root>
    </mxGraphModel>
  </diagram>
</mxfile>
